# xmcd
#
# Track frame offsets: 
#        150
#        13957
#        29655
#        47677
#        62942
#        80485
#        94250
#        112337
#        128500
#        143505
#
# Disc length: 2122 seconds
#
# Revision: 7
# Processed by: cddbd v1.5.2PL0 Copyright (c) Steve Scherf et al.
# Submitted via: ExactAudioCopy v0.99pb5
#
DISCID=8c08480a
DTITLE=John Berry - John Berry
DYEAR=1993
DGENRE=Country
TTITLE0=Somebody
TTITLE1=Kiss Me In The Car
TTITLE2=More Sorry Than You'll Ever Know
TTITLE3=A Mind Of Her Own
TTITLE4=Your Love Amazes Me
TTITLE5=More Than Just A Little
TTITLE6=You And Only You
TTITLE7=Destiny
TTITLE8=What's In It For Me
TTITLE9=When Love Dies
EXTD=
EXTT0=
EXTT1=
EXTT2=
EXTT3=
EXTT4=
EXTT5=
EXTT6=
EXTT7=
EXTT8=
EXTT9=
PLAYORDER=
